<?xml version="1.0" encoding="UTF-8" standalone="no"?>
<!DOCTYPE svg PUBLIC "-//W3C//DTD SVG 1.1//EN" "http://www.w3.org/Graphics/SVG/1.1/DTD/svg11.dtd">
<svg version="1.1" xmlns="http://www.w3.org/2000/svg" xmlns:xlink="http://www.w3.org/1999/xlink" preserveAspectRatio="xMidYMid meet" viewBox="849.0015325670497 69.86508820560266 83.99999999999989 92.27191179439728" width="80" height="88.27"><defs><path d="M927.32 91.09L926.03 91.4L924.8 91.83L923.62 92.36L922.5 92.99L921.45 93.72L920.47 94.54L920.02 94.99L920.01 94.99L859.29 155.71L859.25 155.67L858.56 156.25L857.5 156.98L856.38 157.62L855.2 158.15L853.97 158.57L852.69 158.88L851.36 159.07L850 159.14L850 139.16L851.36 139.1L852.69 138.91L853.97 138.6L855.2 138.18L856.38 137.64L857.5 137.01L858.56 136.28L859.54 135.46L859.99 135.01L859.99 135.01L920.71 74.29L920.75 74.33L921.45 73.75L922.5 73.02L923.62 72.39L924.8 71.85L926.03 71.43L927.32 71.12L928.64 70.93L930 70.87L930 90.84L928.64 90.9L927.32 91.09Z" id="a1MWhQsJAN"></path></defs><g><g><use xlink:href="#a1MWhQsJAN" opacity="1" fill="#ff6700" fill-opacity="0.99"></use></g></g></svg>