<?xml version="1.0" encoding="UTF-8" standalone="no"?>
<!DOCTYPE svg PUBLIC "-//W3C//DTD SVG 1.1//EN" "http://www.w3.org/Graphics/SVG/1.1/DTD/svg11.dtd">
<svg version="1.1" xmlns="http://www.w3.org/2000/svg" xmlns:xlink="http://www.w3.org/1999/xlink" preserveAspectRatio="xMidYMid meet" viewBox="-1.003426573426708 -0.9996503496504374 1923.9997376697384 232.98992223550465" width="1920" height="228.99"><defs><path d="M1596.08 228.7L1596.65 228.7L1596.37 228.99L1596.08 228.7ZM0 0L1520 0L1520 0L1920 0L1920 130L1598.42 130L1597.13 130.17L1595.94 130.68L1594.93 131.46L1594.92 131.47L1594.91 131.47L1530.31 196.07L1530.21 195.96L1529.66 196.47L1528.65 197.25L1527.57 197.95L1526.42 198.55L1525.23 199.06L1523.98 199.46L1522.69 199.76L1521.36 199.94L1520 200L1520 200L0 200L0 0Z" id="hhxufd66W"></path><clipPath id="clipe2CrTLm8i4"><use xlink:href="#hhxufd66W" opacity="1"></use></clipPath></defs><g><g><use xlink:href="#hhxufd66W" opacity="1" fill="#000000" fill-opacity="1"></use><g clip-path="url(#clipe2CrTLm8i4)"><use xlink:href="#hhxufd66W" opacity="1" fill-opacity="0" stroke="#880bfa" stroke-width="0" stroke-opacity="0"></use></g></g></g></svg>