<?xml version="1.0" encoding="UTF-8" standalone="no"?>
<!DOCTYPE svg PUBLIC "-//W3C//DTD SVG 1.1//EN" "http://www.w3.org/Graphics/SVG/1.1/DTD/svg11.dtd">
<svg version="1.1" xmlns="http://www.w3.org/2000/svg" xmlns:xlink="http://www.w3.org/1999/xlink" preserveAspectRatio="xMidYMid meet" viewBox="849.0015325670496 38.99508820560277 84 92.27191179439723" width="80" height="88.27"><defs><path d="M928.64 60.03L927.32 60.22L926.03 60.53L924.8 60.96L923.62 61.49L922.5 62.12L921.45 62.85L920.47 63.67L920.02 64.12L920.01 64.12L859.29 124.84L859.25 124.8L858.56 125.38L857.5 126.11L856.38 126.75L855.2 127.28L853.97 127.7L852.69 128.01L851.36 128.2L850 128.27L850 108.29L851.36 108.23L852.69 108.04L853.97 107.73L855.2 107.31L856.38 106.77L857.5 106.14L858.56 105.41L859.54 104.59L859.99 104.14L859.99 104.14L920.71 43.42L920.75 43.46L921.45 42.88L922.5 42.15L923.62 41.52L924.8 40.98L926.03 40.56L927.32 40.25L928.64 40.06L930 40L930 59.97L928.64 60.03Z" id="awaTmhyeC"></path></defs><g><g><use xlink:href="#awaTmhyeC" opacity="1" fill="#ff1001" fill-opacity="0.99"></use></g></g></svg>