<?xml version="1.0" encoding="UTF-8" standalone="no"?>
<!DOCTYPE svg PUBLIC "-//W3C//DTD SVG 1.1//EN" "http://www.w3.org/Graphics/SVG/1.1/DTD/svg11.dtd">
<svg version="1.1" xmlns="http://www.w3.org/2000/svg" xmlns:xlink="http://www.w3.org/1999/xlink" preserveAspectRatio="xMidYMid meet" viewBox="1047.8571428571427 102.93545822364221 80.00000000000045 230.00000000000006" width="80" height="230"><defs><path d="M1124.51 332.65L1124.22 332.94L1123.94 332.65L1123.94 332.65L1124.51 332.65ZM1126.27 233.51L1124.99 233.68L1123.79 234.19L1122.78 234.98L1122.77 234.99L1122.76 234.99L1058.17 299.87L1058.06 299.76L1057.51 300.27L1056.5 301.06L1055.42 301.76L1054.28 302.36L1053.08 302.87L1051.84 303.28L1050.55 303.57L1049.22 303.75L1047.86 303.81L1047.86 102.94L1127.86 102.94L1127.86 233.51L1127.86 233.51L1126.27 233.51Z" id="a4imxYzjbN"></path><clipPath id="clipa7Kz5dXnZX"><use xlink:href="#a4imxYzjbN" opacity="1"></use></clipPath><path d="M1126.5 193.84L1125.17 194.03L1123.89 194.34L1122.66 194.76L1121.48 195.29L1120.36 195.93L1119.3 196.65L1118.32 197.47L1117.87 197.93L1117.87 197.92L1057.15 258.65L1057.11 258.61L1056.41 259.19L1055.36 259.92L1054.24 260.55L1053.06 261.08L1051.82 261.51L1050.54 261.82L1049.22 262.01L1047.86 262.07L1047.86 242.1L1049.22 242.03L1050.54 241.84L1051.82 241.53L1053.06 241.11L1054.24 240.58L1055.36 239.94L1056.41 239.22L1057.39 238.4L1057.84 237.95L1057.85 237.95L1118.57 177.22L1118.61 177.26L1119.3 176.68L1120.36 175.95L1121.48 175.32L1122.66 174.79L1123.89 174.36L1125.17 174.05L1126.5 173.86L1127.86 173.8L1127.86 193.77L1126.5 193.84Z" id="b7BIxwAHh"></path><path d="M1126.5 222.97L1125.17 223.16L1123.89 223.47L1122.66 223.9L1121.48 224.43L1120.36 225.06L1119.3 225.79L1118.32 226.61L1117.87 227.06L1117.87 227.06L1057.15 287.78L1057.11 287.75L1056.41 288.33L1055.36 289.05L1054.24 289.69L1053.06 290.22L1051.82 290.64L1050.54 290.95L1049.22 291.14L1047.86 291.21L1047.86 271.24L1049.22 271.17L1050.54 270.98L1051.82 270.67L1053.06 270.25L1054.24 269.72L1055.36 269.08L1056.41 268.35L1057.39 267.53L1057.84 267.08L1057.85 267.08L1118.57 206.36L1118.61 206.4L1119.3 205.82L1120.36 205.09L1121.48 204.46L1122.66 203.93L1123.89 203.5L1125.17 203.19L1126.5 203L1127.86 202.94L1127.86 222.91L1126.5 222.97Z" id="c1uB7b4nlb"></path><path d="M1126.5 162.97L1125.17 163.16L1123.89 163.47L1122.66 163.89L1121.48 164.42L1120.36 165.06L1119.3 165.78L1118.32 166.6L1117.87 167.06L1117.87 167.05L1057.15 227.78L1057.11 227.74L1056.41 228.32L1055.36 229.05L1054.24 229.68L1053.06 230.21L1051.82 230.64L1050.54 230.95L1049.22 231.14L1047.86 231.2L1047.86 211.23L1049.22 211.16L1050.54 210.97L1051.82 210.66L1053.06 210.24L1054.24 209.71L1055.36 209.07L1056.41 208.35L1057.39 207.53L1057.84 207.08L1057.85 207.08L1118.57 146.35L1118.61 146.39L1119.3 145.81L1120.36 145.08L1121.48 144.45L1122.66 143.92L1123.89 143.49L1125.17 143.18L1126.5 142.99L1127.86 142.93L1127.86 162.9L1126.5 162.97Z" id="a1HIxCU788"></path></defs><g><g><g><use xlink:href="#a4imxYzjbN" opacity="1" fill="#000000" fill-opacity="1"></use><g clip-path="url(#clipa7Kz5dXnZX)"><use xlink:href="#a4imxYzjbN" opacity="1" fill-opacity="0" stroke="#870afa" stroke-width="0" stroke-opacity="0"></use></g></g><g><use xlink:href="#b7BIxwAHh" opacity="1" fill="#ff6700" fill-opacity="0.99"></use></g><g><use xlink:href="#c1uB7b4nlb" opacity="1" fill="#ffbe00" fill-opacity="0.99"></use></g><g><use xlink:href="#a1HIxCU788" opacity="1" fill="#ff1001" fill-opacity="0.99"></use></g></g></g></svg>