<?xml version="1.0" encoding="UTF-8" standalone="no"?>
<!DOCTYPE svg PUBLIC "-//W3C//DTD SVG 1.1//EN" "http://www.w3.org/Graphics/SVG/1.1/DTD/svg11.dtd">
<svg version="1.1" xmlns="http://www.w3.org/2000/svg" xmlns:xlink="http://www.w3.org/1999/xlink" preserveAspectRatio="xMidYMid meet" viewBox="849.0015325670498 99.00230256653117 83.99999999999977 92.27191179439728" width="80" height="88.27"><defs><path d="M927.32 120.23L926.03 120.54L924.8 120.96L923.62 121.5L922.5 122.13L921.45 122.86L920.47 123.68L920.02 124.13L920.01 124.13L859.29 184.85L859.25 184.81L858.56 185.39L857.5 186.12L856.38 186.75L855.2 187.29L853.97 187.71L852.69 188.02L851.36 188.21L850 188.27L850 168.3L851.36 168.24L852.69 168.05L853.97 167.74L855.2 167.31L856.38 166.78L857.5 166.15L858.56 165.42L859.54 164.6L859.99 164.15L859.99 164.15L920.71 103.43L920.75 103.47L921.45 102.89L922.5 102.16L923.62 101.52L924.8 100.99L926.03 100.57L927.32 100.26L928.64 100.07L930 100L930 119.98L928.64 120.04L927.32 120.23Z" id="bal2bwEop"></path></defs><g><g><use xlink:href="#bal2bwEop" opacity="1" fill="#ffbe00" fill-opacity="0.99"></use></g></g></svg>